<?xml version="1.0" encoding="UTF-8" standalone="no"?>
<!DOCTYPE svg PUBLIC "-//W3C//DTD SVG 1.1//EN"
 "http://www.w3.org/Graphics/SVG/1.1/DTD/svg11.dtd">
<!-- Generated by graphviz version 2.47.0 (20210316.0004)
 -->
<!-- Title: dependencies Pages: 1 -->
<svg width="504pt" height="211pt"
 viewBox="0.00 0.00 504.00 211.00" xmlns="http://www.w3.org/2000/svg" xmlns:xlink="http://www.w3.org/1999/xlink">
<g id="graph0" class="graph" transform="scale(1 1) rotate(0) translate(4 207)">
<title>dependencies</title>
<polygon fill="white" stroke="transparent" points="-4,4 -4,-207 500,-207 500,4 -4,4"/>
<text text-anchor="start" x="227.01" y="-42.4" font-family="Times-12" font-weight="bold" font-size="14.00">Legend</text>
<polygon fill="#ffffb3" stroke="transparent" points="14,-10 14,-30 34,-30 34,-10 14,-10"/>
<text text-anchor="start" x="37.63" y="-15.4" font-family="Times-12" font-size="14.00"> &#160;Declarations</text>
<polygon fill="#8dd3c7" stroke="transparent" points="127,-10 127,-30 147,-30 147,-10 127,-10"/>
<text text-anchor="start" x="150.73" y="-15.4" font-family="Times-12" font-size="14.00"> &#160;Module</text>
<polygon fill="#80b1d3" stroke="transparent" points="213,-10 213,-30 233,-30 233,-10 213,-10"/>
<text text-anchor="start" x="236.78" y="-15.4" font-family="Times-12" font-size="14.00"> &#160;Bootstrap</text>
<polygon fill="#fdb462" stroke="transparent" points="310,-10 310,-30 330,-30 330,-10 310,-10"/>
<text text-anchor="start" x="333.67" y="-15.4" font-family="Times-12" font-size="14.00"> &#160;Providers</text>
<polygon fill="#fb8072" stroke="transparent" points="406,-10 406,-30 426,-30 426,-10 406,-10"/>
<text text-anchor="start" x="429.73" y="-15.4" font-family="Times-12" font-size="14.00"> &#160;Exports</text>
<g id="clust1" class="cluster">
<title>cluster_TaskModule</title>
<polygon fill="none" stroke="black" stroke-dasharray="1,5" points="120,-70 120,-195 376,-195 376,-70 120,-70"/>
</g>
<g id="clust6" class="cluster">
<title>cluster_TaskModule_providers</title>
<polygon fill="none" stroke="black" points="234,-78 234,-130 368,-130 368,-78 234,-78"/>
</g>
<g id="clust3" class="cluster">
<title>cluster_TaskModule_imports</title>
<polygon fill="none" stroke="black" points="128,-78 128,-130 226,-130 226,-78 128,-78"/>
</g>
<!-- LogModule -->
<g id="node1" class="node">
<title>LogModule</title>
<polygon fill="#8dd3c7" stroke="black" points="218.1,-122 215.1,-126 194.1,-126 191.1,-122 135.9,-122 135.9,-86 218.1,-86 218.1,-122"/>
<text text-anchor="middle" x="177" y="-99.8" font-family="Times,serif" font-size="14.00">LogModule</text>
</g>
<!-- TaskModule -->
<g id="node2" class="node">
<title>TaskModule</title>
<polygon fill="#8dd3c7" stroke="black" points="282.26,-187 279.26,-191 258.26,-191 255.26,-187 195.74,-187 195.74,-151 282.26,-151 282.26,-187"/>
<text text-anchor="middle" x="239" y="-164.8" font-family="Times,serif" font-size="14.00">TaskModule</text>
</g>
<!-- LogModule&#45;&gt;TaskModule -->
<g id="edge1" class="edge">
<title>LogModule&#45;&gt;TaskModule</title>
<path fill="none" stroke="black" d="M206.84,-122.11C206.84,-122.11 206.84,-140.99 206.84,-140.99"/>
<polygon fill="black" stroke="black" points="203.34,-140.99 206.84,-150.99 210.34,-140.99 203.34,-140.99"/>
</g>
<!-- TaskService -->
<g id="node3" class="node">
<title>TaskService</title>
<ellipse fill="#fdb462" stroke="black" cx="301" cy="-104" rx="58.53" ry="18"/>
<text text-anchor="middle" x="301" y="-99.8" font-family="Times,serif" font-size="14.00">TaskService</text>
</g>
<!-- TaskService&#45;&gt;TaskModule -->
<g id="edge2" class="edge">
<title>TaskService&#45;&gt;TaskModule</title>
<path fill="none" stroke="black" d="M262.31,-117.78C262.31,-117.78 262.31,-140.55 262.31,-140.55"/>
<polygon fill="black" stroke="black" points="258.81,-140.55 262.31,-150.55 265.81,-140.55 258.81,-140.55"/>
</g>
</g>
</svg>
