<?xml version="1.0" encoding="UTF-8" standalone="no"?>
<!DOCTYPE svg PUBLIC "-//W3C//DTD SVG 1.1//EN"
 "http://www.w3.org/Graphics/SVG/1.1/DTD/svg11.dtd">
<!-- Generated by graphviz version 2.47.0 (20210316.0004)
 -->
<!-- Title: dependencies Pages: 1 -->
<svg width="955pt" height="211pt"
 viewBox="0.00 0.00 955.00 211.00" xmlns="http://www.w3.org/2000/svg" xmlns:xlink="http://www.w3.org/1999/xlink">
<g id="graph0" class="graph" transform="scale(1 1) rotate(0) translate(4 207)">
<title>dependencies</title>
<polygon fill="white" stroke="transparent" points="-4,4 -4,-207 951,-207 951,4 -4,4"/>
<text text-anchor="start" x="452.51" y="-42.4" font-family="Times-12" font-weight="bold" font-size="14.00">Legend</text>
<polygon fill="#ffffb3" stroke="transparent" points="239.5,-10 239.5,-30 259.5,-30 259.5,-10 239.5,-10"/>
<text text-anchor="start" x="263.13" y="-15.4" font-family="Times-12" font-size="14.00"> &#160;Declarations</text>
<polygon fill="#8dd3c7" stroke="transparent" points="352.5,-10 352.5,-30 372.5,-30 372.5,-10 352.5,-10"/>
<text text-anchor="start" x="376.23" y="-15.4" font-family="Times-12" font-size="14.00"> &#160;Module</text>
<polygon fill="#80b1d3" stroke="transparent" points="438.5,-10 438.5,-30 458.5,-30 458.5,-10 438.5,-10"/>
<text text-anchor="start" x="462.28" y="-15.4" font-family="Times-12" font-size="14.00"> &#160;Bootstrap</text>
<polygon fill="#fdb462" stroke="transparent" points="535.5,-10 535.5,-30 555.5,-30 555.5,-10 535.5,-10"/>
<text text-anchor="start" x="559.17" y="-15.4" font-family="Times-12" font-size="14.00"> &#160;Providers</text>
<polygon fill="#fb8072" stroke="transparent" points="631.5,-10 631.5,-30 651.5,-30 651.5,-10 631.5,-10"/>
<text text-anchor="start" x="655.23" y="-15.4" font-family="Times-12" font-size="14.00"> &#160;Exports</text>
<g id="clust1" class="cluster">
<title>cluster_AppModule</title>
<polygon fill="none" stroke="black" stroke-dasharray="1,5" points="8,-70 8,-195 939,-195 939,-70 8,-70"/>
</g>
<g id="clust3" class="cluster">
<title>cluster_AppModule_imports</title>
<polygon fill="none" stroke="black" points="154,-78 154,-130 931,-130 931,-78 154,-78"/>
</g>
<g id="clust6" class="cluster">
<title>cluster_AppModule_providers</title>
<polygon fill="none" stroke="black" points="16,-78 16,-130 146,-130 146,-78 16,-78"/>
</g>
<!-- AuthModule -->
<g id="node1" class="node">
<title>AuthModule</title>
<polygon fill="#8dd3c7" stroke="black" points="922.55,-122 919.55,-126 898.55,-126 895.55,-122 835.45,-122 835.45,-86 922.55,-86 922.55,-122"/>
<text text-anchor="middle" x="879" y="-99.8" font-family="Times,serif" font-size="14.00">AuthModule</text>
</g>
<!-- AppModule -->
<g id="node7" class="node">
<title>AppModule</title>
<polygon fill="#8dd3c7" stroke="black" points="458.66,-187 455.66,-191 434.66,-191 431.66,-187 375.34,-187 375.34,-151 458.66,-151 458.66,-187"/>
<text text-anchor="middle" x="417" y="-164.8" font-family="Times,serif" font-size="14.00">AppModule</text>
</g>
<!-- AuthModule&#45;&gt;AppModule -->
<g id="edge1" class="edge">
<title>AuthModule&#45;&gt;AppModule</title>
<path fill="none" stroke="black" d="M879,-122.29C879,-144.21 879,-178 879,-178 879,-178 468.81,-178 468.81,-178"/>
<polygon fill="black" stroke="black" points="468.81,-174.5 458.81,-178 468.81,-181.5 468.81,-174.5"/>
</g>
<!-- MongodbProviderModule -->
<g id="node2" class="node">
<title>MongodbProviderModule</title>
<polygon fill="#8dd3c7" stroke="black" points="817.2,-122 814.2,-126 793.2,-126 790.2,-122 654.8,-122 654.8,-86 817.2,-86 817.2,-122"/>
<text text-anchor="middle" x="736" y="-99.8" font-family="Times,serif" font-size="14.00">MongodbProviderModule</text>
</g>
<!-- MongodbProviderModule&#45;&gt;AppModule -->
<g id="edge2" class="edge">
<title>MongodbProviderModule&#45;&gt;AppModule</title>
<path fill="none" stroke="black" d="M736,-122.11C736,-141.34 736,-169 736,-169 736,-169 468.7,-169 468.7,-169"/>
<polygon fill="black" stroke="black" points="468.7,-165.5 458.7,-169 468.7,-172.5 468.7,-165.5"/>
</g>
<!-- PostgresProviderModule -->
<g id="node3" class="node">
<title>PostgresProviderModule</title>
<polygon fill="#8dd3c7" stroke="black" points="636.7,-122 633.7,-126 612.7,-126 609.7,-122 481.3,-122 481.3,-86 636.7,-86 636.7,-122"/>
<text text-anchor="middle" x="559" y="-99.8" font-family="Times,serif" font-size="14.00">PostgresProviderModule</text>
</g>
<!-- PostgresProviderModule&#45;&gt;AppModule -->
<g id="edge3" class="edge">
<title>PostgresProviderModule&#45;&gt;AppModule</title>
<path fill="none" stroke="black" d="M559,-122.03C559,-138.4 559,-160 559,-160 559,-160 468.84,-160 468.84,-160"/>
<polygon fill="black" stroke="black" points="468.84,-156.5 458.84,-160 468.84,-163.5 468.84,-156.5"/>
</g>
<!-- StatusModule -->
<g id="node4" class="node">
<title>StatusModule</title>
<polygon fill="#8dd3c7" stroke="black" points="463.77,-122 460.77,-126 439.77,-126 436.77,-122 370.23,-122 370.23,-86 463.77,-86 463.77,-122"/>
<text text-anchor="middle" x="417" y="-99.8" font-family="Times,serif" font-size="14.00">StatusModule</text>
</g>
<!-- StatusModule&#45;&gt;AppModule -->
<g id="edge4" class="edge">
<title>StatusModule&#45;&gt;AppModule</title>
<path fill="none" stroke="black" d="M417,-122.11C417,-122.11 417,-140.99 417,-140.99"/>
<polygon fill="black" stroke="black" points="413.5,-140.99 417,-150.99 420.5,-140.99 413.5,-140.99"/>
</g>
<!-- TaskModule -->
<g id="node5" class="node">
<title>TaskModule</title>
<polygon fill="#8dd3c7" stroke="black" points="352.26,-122 349.26,-126 328.26,-126 325.26,-122 265.74,-122 265.74,-86 352.26,-86 352.26,-122"/>
<text text-anchor="middle" x="309" y="-99.8" font-family="Times,serif" font-size="14.00">TaskModule</text>
</g>
<!-- TaskModule&#45;&gt;AppModule -->
<g id="edge5" class="edge">
<title>TaskModule&#45;&gt;AppModule</title>
<path fill="none" stroke="black" d="M309,-122.03C309,-138.4 309,-160 309,-160 309,-160 365.24,-160 365.24,-160"/>
<polygon fill="black" stroke="black" points="365.24,-163.5 375.24,-160 365.24,-156.5 365.24,-163.5"/>
</g>
<!-- UserModule -->
<g id="node6" class="node">
<title>UserModule</title>
<polygon fill="#8dd3c7" stroke="black" points="247.98,-122 244.98,-126 223.98,-126 220.98,-122 162.02,-122 162.02,-86 247.98,-86 247.98,-122"/>
<text text-anchor="middle" x="205" y="-99.8" font-family="Times,serif" font-size="14.00">UserModule</text>
</g>
<!-- UserModule&#45;&gt;AppModule -->
<g id="edge6" class="edge">
<title>UserModule&#45;&gt;AppModule</title>
<path fill="none" stroke="black" d="M205,-122.11C205,-141.34 205,-169 205,-169 205,-169 365.12,-169 365.12,-169"/>
<polygon fill="black" stroke="black" points="365.12,-172.5 375.12,-169 365.12,-165.5 365.12,-172.5"/>
</g>
<!-- AppService -->
<g id="node8" class="node">
<title>AppService</title>
<ellipse fill="#fdb462" stroke="black" cx="81" cy="-104" rx="56.74" ry="18"/>
<text text-anchor="middle" x="81" y="-99.8" font-family="Times,serif" font-size="14.00">AppService</text>
</g>
<!-- AppService&#45;&gt;AppModule -->
<g id="edge7" class="edge">
<title>AppService&#45;&gt;AppModule</title>
<path fill="none" stroke="black" d="M81,-122.29C81,-144.21 81,-178 81,-178 81,-178 365.12,-178 365.12,-178"/>
<polygon fill="black" stroke="black" points="365.12,-181.5 375.12,-178 365.12,-174.5 365.12,-181.5"/>
</g>
</g>
</svg>
