<?xml version="1.0" encoding="UTF-8" standalone="no"?>
<!DOCTYPE svg PUBLIC "-//W3C//DTD SVG 1.1//EN"
 "http://www.w3.org/Graphics/SVG/1.1/DTD/svg11.dtd">
<!-- Generated by graphviz version 2.47.0 (20210316.0004)
 -->
<!-- Title: dependencies Pages: 1 -->
<svg width="2032pt" height="363pt"
 viewBox="0.00 0.00 2032.00 363.00" xmlns="http://www.w3.org/2000/svg" xmlns:xlink="http://www.w3.org/1999/xlink">
<g id="graph0" class="graph" transform="scale(1 1) rotate(0) translate(4 359)">
<title>dependencies</title>
<polygon fill="white" stroke="transparent" points="-4,4 -4,-359 2028,-359 2028,4 -4,4"/>
<text text-anchor="start" x="991.01" y="-42.4" font-family="Times-12" font-weight="bold" font-size="14.00">Legend</text>
<polygon fill="#ffffb3" stroke="transparent" points="778,-10 778,-30 798,-30 798,-10 778,-10"/>
<text text-anchor="start" x="801.63" y="-15.4" font-family="Times-12" font-size="14.00"> &#160;Declarations</text>
<polygon fill="#8dd3c7" stroke="transparent" points="891,-10 891,-30 911,-30 911,-10 891,-10"/>
<text text-anchor="start" x="914.73" y="-15.4" font-family="Times-12" font-size="14.00"> &#160;Module</text>
<polygon fill="#80b1d3" stroke="transparent" points="977,-10 977,-30 997,-30 997,-10 977,-10"/>
<text text-anchor="start" x="1000.78" y="-15.4" font-family="Times-12" font-size="14.00"> &#160;Bootstrap</text>
<polygon fill="#fdb462" stroke="transparent" points="1074,-10 1074,-30 1094,-30 1094,-10 1074,-10"/>
<text text-anchor="start" x="1097.67" y="-15.4" font-family="Times-12" font-size="14.00"> &#160;Providers</text>
<polygon fill="#fb8072" stroke="transparent" points="1170,-10 1170,-30 1190,-30 1190,-10 1170,-10"/>
<text text-anchor="start" x="1193.73" y="-15.4" font-family="Times-12" font-size="14.00"> &#160;Exports</text>
<g id="clust1" class="cluster">
<title>cluster_AppModule</title>
<polygon fill="none" stroke="black" stroke-dasharray="1,5" points="434,-146 434,-347 1260,-347 1260,-146 434,-146"/>
</g>
<g id="clust3" class="cluster">
<title>cluster_AppModule_imports</title>
<polygon fill="none" stroke="black" points="580,-154 580,-282 1252,-282 1252,-154 580,-154"/>
</g>
<g id="clust6" class="cluster">
<title>cluster_AppModule_providers</title>
<polygon fill="none" stroke="black" points="442,-230 442,-282 572,-282 572,-230 442,-230"/>
</g>
<g id="clust7" class="cluster">
<title>cluster_AuthModule</title>
<polygon fill="none" stroke="black" stroke-dasharray="1,5" points="132,-146 132,-214 426,-214 426,-146 132,-146"/>
</g>
<g id="clust12" class="cluster">
<title>cluster_AuthModule_providers</title>
<polygon fill="none" stroke="black" points="140,-154 140,-206 418,-206 418,-154 140,-154"/>
</g>
<g id="clust13" class="cluster">
<title>cluster_LogModule</title>
<polygon fill="none" stroke="black" stroke-dasharray="1,5" points="8,-78 8,-214 124,-214 124,-78 8,-78"/>
</g>
<g id="clust16" class="cluster">
<title>cluster_LogModule_exports</title>
<polygon fill="none" stroke="black" points="16,-154 16,-206 116,-206 116,-154 16,-154"/>
</g>
<g id="clust19" class="cluster">
<title>cluster_MongodbConfigModule</title>
<polygon fill="none" stroke="black" stroke-dasharray="1,5" points="1536,-70 1536,-290 1776,-290 1776,-70 1536,-70"/>
</g>
<g id="clust22" class="cluster">
<title>cluster_MongodbConfigModule_exports</title>
<polygon fill="none" stroke="black" points="1571,-230 1571,-282 1741,-282 1741,-230 1571,-230"/>
</g>
<g id="clust24" class="cluster">
<title>cluster_MongodbConfigModule_providers</title>
<polygon fill="none" stroke="black" points="1544,-78 1544,-130 1768,-130 1768,-78 1544,-78"/>
</g>
<g id="clust31" class="cluster">
<title>cluster_PostgresConfigModule</title>
<polygon fill="none" stroke="black" stroke-dasharray="1,5" points="1784,-70 1784,-290 2016,-290 2016,-70 1784,-70"/>
</g>
<g id="clust34" class="cluster">
<title>cluster_PostgresConfigModule_exports</title>
<polygon fill="none" stroke="black" points="1818,-230 1818,-282 1982,-282 1982,-230 1818,-230"/>
</g>
<g id="clust36" class="cluster">
<title>cluster_PostgresConfigModule_providers</title>
<polygon fill="none" stroke="black" points="1792,-78 1792,-130 2008,-130 2008,-78 1792,-78"/>
</g>
<g id="clust43" class="cluster">
<title>cluster_StatusModule</title>
<polygon fill="none" stroke="black" stroke-dasharray="1,5" points="527,-70 527,-138 687,-138 687,-70 527,-70"/>
</g>
<g id="clust48" class="cluster">
<title>cluster_StatusModule_providers</title>
<polygon fill="none" stroke="black" points="535,-78 535,-130 679,-130 679,-78 535,-78"/>
</g>
<g id="clust49" class="cluster">
<title>cluster_TaskModule</title>
<polygon fill="none" stroke="black" stroke-dasharray="1,5" points="695,-70 695,-138 845,-138 845,-70 695,-70"/>
</g>
<g id="clust54" class="cluster">
<title>cluster_TaskModule_providers</title>
<polygon fill="none" stroke="black" points="703,-78 703,-130 837,-130 837,-78 703,-78"/>
</g>
<g id="clust55" class="cluster">
<title>cluster_UserModule</title>
<polygon fill="none" stroke="black" stroke-dasharray="1,5" points="1268,-222 1268,-290 1528,-290 1528,-222 1268,-222"/>
</g>
<g id="clust58" class="cluster">
<title>cluster_UserModule_exports</title>
<polygon fill="none" stroke="black" points="1416,-230 1416,-282 1520,-282 1520,-230 1416,-230"/>
</g>
<g id="clust60" class="cluster">
<title>cluster_UserModule_providers</title>
<polygon fill="none" stroke="black" points="1276,-230 1276,-282 1408,-282 1408,-230 1276,-230"/>
</g>
<!-- AuthModule -->
<g id="node1" class="node">
<title>AuthModule</title>
<polygon fill="#8dd3c7" stroke="black" points="682.55,-274 679.55,-278 658.55,-278 655.55,-274 595.45,-274 595.45,-238 682.55,-238 682.55,-274"/>
<text text-anchor="middle" x="639" y="-251.8" font-family="Times,serif" font-size="14.00">AuthModule</text>
</g>
<!-- AppModule -->
<g id="node7" class="node">
<title>AppModule</title>
<polygon fill="#8dd3c7" stroke="black" points="784.66,-339 781.66,-343 760.66,-343 757.66,-339 701.34,-339 701.34,-303 784.66,-303 784.66,-339"/>
<text text-anchor="middle" x="743" y="-316.8" font-family="Times,serif" font-size="14.00">AppModule</text>
</g>
<!-- AuthModule&#45;&gt;AppModule -->
<g id="edge1" class="edge">
<title>AuthModule&#45;&gt;AppModule</title>
<path fill="none" stroke="black" d="M682.71,-265C705.65,-265 729.06,-265 729.06,-265 729.06,-265 729.06,-292.97 729.06,-292.97"/>
<polygon fill="black" stroke="black" points="725.56,-292.97 729.06,-302.97 732.56,-292.97 725.56,-292.97"/>
</g>
<!-- MongodbProviderModule -->
<g id="node2" class="node">
<title>MongodbProviderModule</title>
<polygon fill="#8dd3c7" stroke="black" points="966.2,-198 963.2,-202 942.2,-202 939.2,-198 803.8,-198 803.8,-162 966.2,-162 966.2,-198"/>
<text text-anchor="middle" x="885" y="-175.8" font-family="Times,serif" font-size="14.00">MongodbProviderModule</text>
</g>
<!-- MongodbProviderModule&#45;&gt;AppModule -->
<g id="edge2" class="edge">
<title>MongodbProviderModule&#45;&gt;AppModule</title>
<path fill="none" stroke="black" d="M885,-198.08C885,-234.23 885,-312 885,-312 885,-312 794.84,-312 794.84,-312"/>
<polygon fill="black" stroke="black" points="794.84,-308.5 784.84,-312 794.84,-315.5 794.84,-308.5"/>
</g>
<!-- PostgresProviderModule -->
<g id="node3" class="node">
<title>PostgresProviderModule</title>
<polygon fill="#8dd3c7" stroke="black" points="1139.7,-198 1136.7,-202 1115.7,-202 1112.7,-198 984.3,-198 984.3,-162 1139.7,-162 1139.7,-198"/>
<text text-anchor="middle" x="1062" y="-175.8" font-family="Times,serif" font-size="14.00">PostgresProviderModule</text>
</g>
<!-- PostgresProviderModule&#45;&gt;AppModule -->
<g id="edge3" class="edge">
<title>PostgresProviderModule&#45;&gt;AppModule</title>
<path fill="none" stroke="black" d="M1062,-198.14C1062,-236.23 1062,-321 1062,-321 1062,-321 794.7,-321 794.7,-321"/>
<polygon fill="black" stroke="black" points="794.7,-317.5 784.7,-321 794.7,-324.5 794.7,-317.5"/>
</g>
<!-- StatusModule -->
<g id="node4" class="node">
<title>StatusModule</title>
<polygon fill="#8dd3c7" stroke="black" points="681.77,-198 678.77,-202 657.77,-202 654.77,-198 588.23,-198 588.23,-162 681.77,-162 681.77,-198"/>
<text text-anchor="middle" x="635" y="-175.8" font-family="Times,serif" font-size="14.00">StatusModule</text>
</g>
<!-- StatusModule&#45;&gt;AppModule -->
<g id="edge4" class="edge">
<title>StatusModule&#45;&gt;AppModule</title>
<path fill="none" stroke="black" d="M591.67,-198.21C591.67,-235.06 591.67,-315 591.67,-315 591.67,-315 691.25,-315 691.25,-315"/>
<polygon fill="black" stroke="black" points="691.25,-318.5 701.25,-315 691.25,-311.5 691.25,-318.5"/>
</g>
<!-- TaskModule -->
<g id="node5" class="node">
<title>TaskModule</title>
<polygon fill="#8dd3c7" stroke="black" points="786.26,-198 783.26,-202 762.26,-202 759.26,-198 699.74,-198 699.74,-162 786.26,-162 786.26,-198"/>
<text text-anchor="middle" x="743" y="-175.8" font-family="Times,serif" font-size="14.00">TaskModule</text>
</g>
<!-- TaskModule&#45;&gt;AppModule -->
<g id="edge5" class="edge">
<title>TaskModule&#45;&gt;AppModule</title>
<path fill="none" stroke="black" d="M756.94,-198.14C756.94,-198.14 756.94,-292.93 756.94,-292.93"/>
<polygon fill="black" stroke="black" points="753.44,-292.92 756.94,-302.93 760.44,-292.93 753.44,-292.92"/>
</g>
<!-- UserModule -->
<g id="node6" class="node">
<title>UserModule</title>
<polygon fill="#8dd3c7" stroke="black" points="1243.98,-198 1240.98,-202 1219.98,-202 1216.98,-198 1158.02,-198 1158.02,-162 1243.98,-162 1243.98,-198"/>
<text text-anchor="middle" x="1201" y="-175.8" font-family="Times,serif" font-size="14.00">UserModule</text>
</g>
<!-- UserModule&#45;&gt;AuthModule -->
<g id="edge8" class="edge">
<title>UserModule&#45;&gt;AuthModule</title>
<path fill="none" stroke="black" d="M1179.51,-198.31C1179.51,-218.15 1179.51,-247 1179.51,-247 1179.51,-247 692.77,-247 692.77,-247"/>
<polygon fill="black" stroke="black" points="692.77,-243.5 682.77,-247 692.77,-250.5 692.77,-243.5"/>
</g>
<!-- UserModule&#45;&gt;AppModule -->
<g id="edge6" class="edge">
<title>UserModule&#45;&gt;AppModule</title>
<path fill="none" stroke="black" d="M1201,-198.09C1201,-237.99 1201,-330 1201,-330 1201,-330 794.86,-330 794.86,-330"/>
<polygon fill="black" stroke="black" points="794.86,-326.5 784.86,-330 794.86,-333.5 794.86,-326.5"/>
</g>
<!-- UserService  -->
<g id="node21" class="node">
<title>UserService </title>
<polygon fill="#fb8072" stroke="black" points="1511.9,-274 1424.1,-274 1424.1,-238 1511.9,-238 1511.9,-274"/>
<text text-anchor="middle" x="1468" y="-251.8" font-family="Times,serif" font-size="14.00">UserService </text>
</g>
<!-- UserModule&#45;&gt;UserService  -->
<g id="edge19" class="edge">
<title>UserModule&#45;&gt;UserService </title>
<path fill="none" stroke="black" stroke-dasharray="5,2" d="M1244.19,-180C1319.76,-180 1468,-180 1468,-180 1468,-180 1468,-227.99 1468,-227.99"/>
<polygon fill="black" stroke="black" points="1464.5,-227.99 1468,-237.99 1471.5,-227.99 1464.5,-227.99"/>
</g>
<!-- AppService -->
<g id="node8" class="node">
<title>AppService</title>
<ellipse fill="#fdb462" stroke="black" cx="507" cy="-256" rx="56.74" ry="18"/>
<text text-anchor="middle" x="507" y="-251.8" font-family="Times,serif" font-size="14.00">AppService</text>
</g>
<!-- AppService&#45;&gt;AppModule -->
<g id="edge7" class="edge">
<title>AppService&#45;&gt;AppModule</title>
<path fill="none" stroke="black" d="M507,-274.28C507,-295.32 507,-327 507,-327 507,-327 691.08,-327 691.08,-327"/>
<polygon fill="black" stroke="black" points="691.08,-330.5 701.08,-327 691.08,-323.5 691.08,-330.5"/>
</g>
<!-- JwtStrategy -->
<g id="node9" class="node">
<title>JwtStrategy</title>
<ellipse fill="#fdb462" stroke="black" cx="353" cy="-180" rx="56.76" ry="18"/>
<text text-anchor="middle" x="353" y="-175.8" font-family="Times,serif" font-size="14.00">JwtStrategy</text>
</g>
<!-- JwtStrategy&#45;&gt;AuthModule -->
<g id="edge9" class="edge">
<title>JwtStrategy&#45;&gt;AuthModule</title>
<path fill="none" stroke="black" d="M409.82,-180C475.85,-180 575.87,-180 575.87,-180 575.87,-180 575.87,-256 575.87,-256 575.87,-256 585.15,-256 585.15,-256"/>
<polygon fill="black" stroke="black" points="585.15,-259.5 595.15,-256 585.15,-252.5 585.15,-259.5"/>
</g>
<!-- LocalStrategy -->
<g id="node10" class="node">
<title>LocalStrategy</title>
<ellipse fill="#fdb462" stroke="black" cx="213" cy="-180" rx="65.41" ry="18"/>
<text text-anchor="middle" x="213" y="-175.8" font-family="Times,serif" font-size="14.00">LocalStrategy</text>
</g>
<!-- LocalStrategy&#45;&gt;AuthModule -->
<g id="edge10" class="edge">
<title>LocalStrategy&#45;&gt;AuthModule</title>
<path fill="none" stroke="black" d="M213,-198.11C213,-207.9 213,-218 213,-218 213,-218 638.56,-218 638.56,-218 638.56,-218 638.56,-227.89 638.56,-227.89"/>
<polygon fill="black" stroke="black" points="635.06,-227.89 638.56,-237.89 642.06,-227.89 635.06,-227.89"/>
</g>
<!-- LogService  -->
<g id="node11" class="node">
<title>LogService </title>
<polygon fill="#fb8072" stroke="black" points="108.03,-198 23.97,-198 23.97,-162 108.03,-162 108.03,-198"/>
<text text-anchor="middle" x="66" y="-175.8" font-family="Times,serif" font-size="14.00">LogService </text>
</g>
<!-- LogModule -->
<g id="node12" class="node">
<title>LogModule</title>
<polygon fill="#8dd3c7" stroke="black" points="111.1,-122 108.1,-126 87.1,-126 84.1,-122 28.9,-122 28.9,-86 111.1,-86 111.1,-122"/>
<text text-anchor="middle" x="70" y="-99.8" font-family="Times,serif" font-size="14.00">LogModule</text>
</g>
<!-- LogModule&#45;&gt;TaskModule -->
<g id="edge17" class="edge">
<title>LogModule&#45;&gt;TaskModule</title>
<path fill="none" stroke="black" d="M81.66,-122.11C81.66,-131.9 81.66,-142 81.66,-142 81.66,-142 705.43,-142 705.43,-142 705.43,-142 705.43,-151.89 705.43,-151.89"/>
<polygon fill="black" stroke="black" points="701.93,-151.89 705.43,-161.89 708.93,-151.89 701.93,-151.89"/>
</g>
<!-- LogModule&#45;&gt;LogService  -->
<g id="edge11" class="edge">
<title>LogModule&#45;&gt;LogService </title>
<path fill="none" stroke="black" stroke-dasharray="5,2" d="M55.3,-122.01C55.3,-122.01 55.3,-151.85 55.3,-151.85"/>
<polygon fill="black" stroke="black" points="51.8,-151.85 55.3,-161.85 58.8,-151.85 51.8,-151.85"/>
</g>
<!-- MongodbConfigService  -->
<g id="node13" class="node">
<title>MongodbConfigService </title>
<polygon fill="#fb8072" stroke="black" points="1733.31,-274 1578.69,-274 1578.69,-238 1733.31,-238 1733.31,-274"/>
<text text-anchor="middle" x="1656" y="-251.8" font-family="Times,serif" font-size="14.00">MongodbConfigService </text>
</g>
<!-- MongodbConfigModule -->
<g id="node14" class="node">
<title>MongodbConfigModule</title>
<polygon fill="#8dd3c7" stroke="black" points="1732.38,-198 1729.38,-202 1708.38,-202 1705.38,-198 1579.62,-198 1579.62,-162 1732.38,-162 1732.38,-198"/>
<text text-anchor="middle" x="1656" y="-175.8" font-family="Times,serif" font-size="14.00">MongodbConfigModule</text>
</g>
<!-- MongodbConfigModule&#45;&gt;MongodbConfigService  -->
<g id="edge12" class="edge">
<title>MongodbConfigModule&#45;&gt;MongodbConfigService </title>
<path fill="none" stroke="black" stroke-dasharray="5,2" d="M1656,-198.01C1656,-198.01 1656,-227.85 1656,-227.85"/>
<polygon fill="black" stroke="black" points="1652.5,-227.85 1656,-237.85 1659.5,-227.85 1652.5,-227.85"/>
</g>
<!-- MongodbConfigService -->
<g id="node15" class="node">
<title>MongodbConfigService</title>
<ellipse fill="#fdb462" stroke="black" cx="1656" cy="-104" rx="104.24" ry="18"/>
<text text-anchor="middle" x="1656" y="-99.8" font-family="Times,serif" font-size="14.00">MongodbConfigService</text>
</g>
<!-- MongodbConfigService&#45;&gt;MongodbConfigModule -->
<g id="edge13" class="edge">
<title>MongodbConfigService&#45;&gt;MongodbConfigModule</title>
<path fill="none" stroke="black" d="M1656,-122.01C1656,-122.01 1656,-151.85 1656,-151.85"/>
<polygon fill="black" stroke="black" points="1652.5,-151.85 1656,-161.85 1659.5,-151.85 1652.5,-151.85"/>
</g>
<!-- PostgresConfigService  -->
<g id="node16" class="node">
<title>PostgresConfigService </title>
<polygon fill="#fb8072" stroke="black" points="1973.8,-274 1826.2,-274 1826.2,-238 1973.8,-238 1973.8,-274"/>
<text text-anchor="middle" x="1900" y="-251.8" font-family="Times,serif" font-size="14.00">PostgresConfigService </text>
</g>
<!-- PostgresConfigModule -->
<g id="node17" class="node">
<title>PostgresConfigModule</title>
<polygon fill="#8dd3c7" stroke="black" points="1972.88,-198 1969.88,-202 1948.88,-202 1945.88,-198 1827.12,-198 1827.12,-162 1972.88,-162 1972.88,-198"/>
<text text-anchor="middle" x="1900" y="-175.8" font-family="Times,serif" font-size="14.00">PostgresConfigModule</text>
</g>
<!-- PostgresConfigModule&#45;&gt;PostgresConfigService  -->
<g id="edge14" class="edge">
<title>PostgresConfigModule&#45;&gt;PostgresConfigService </title>
<path fill="none" stroke="black" stroke-dasharray="5,2" d="M1900,-198.01C1900,-198.01 1900,-227.85 1900,-227.85"/>
<polygon fill="black" stroke="black" points="1896.5,-227.85 1900,-237.85 1903.5,-227.85 1896.5,-227.85"/>
</g>
<!-- PostgresConfigService -->
<g id="node18" class="node">
<title>PostgresConfigService</title>
<ellipse fill="#fdb462" stroke="black" cx="1900" cy="-104" rx="99.58" ry="18"/>
<text text-anchor="middle" x="1900" y="-99.8" font-family="Times,serif" font-size="14.00">PostgresConfigService</text>
</g>
<!-- PostgresConfigService&#45;&gt;PostgresConfigModule -->
<g id="edge15" class="edge">
<title>PostgresConfigService&#45;&gt;PostgresConfigModule</title>
<path fill="none" stroke="black" d="M1900,-122.01C1900,-122.01 1900,-151.85 1900,-151.85"/>
<polygon fill="black" stroke="black" points="1896.5,-151.85 1900,-161.85 1903.5,-151.85 1896.5,-151.85"/>
</g>
<!-- StatusService -->
<g id="node19" class="node">
<title>StatusService</title>
<ellipse fill="#fdb462" stroke="black" cx="607" cy="-104" rx="63.7" ry="18"/>
<text text-anchor="middle" x="607" y="-99.8" font-family="Times,serif" font-size="14.00">StatusService</text>
</g>
<!-- StatusService&#45;&gt;StatusModule -->
<g id="edge16" class="edge">
<title>StatusService&#45;&gt;StatusModule</title>
<path fill="none" stroke="black" d="M629.36,-120.87C629.36,-120.87 629.36,-151.85 629.36,-151.85"/>
<polygon fill="black" stroke="black" points="625.86,-151.85 629.36,-161.85 632.86,-151.85 625.86,-151.85"/>
</g>
<!-- TaskService -->
<g id="node20" class="node">
<title>TaskService</title>
<ellipse fill="#fdb462" stroke="black" cx="770" cy="-104" rx="58.53" ry="18"/>
<text text-anchor="middle" x="770" y="-99.8" font-family="Times,serif" font-size="14.00">TaskService</text>
</g>
<!-- TaskService&#45;&gt;TaskModule -->
<g id="edge18" class="edge">
<title>TaskService&#45;&gt;TaskModule</title>
<path fill="none" stroke="black" d="M748.81,-120.87C748.81,-120.87 748.81,-151.85 748.81,-151.85"/>
<polygon fill="black" stroke="black" points="745.31,-151.85 748.81,-161.85 752.31,-151.85 745.31,-151.85"/>
</g>
<!-- UserService -->
<g id="node22" class="node">
<title>UserService</title>
<ellipse fill="#fdb462" stroke="black" cx="1342" cy="-256" rx="58.44" ry="18"/>
<text text-anchor="middle" x="1342" y="-251.8" font-family="Times,serif" font-size="14.00">UserService</text>
</g>
<!-- UserService&#45;&gt;UserModule -->
<g id="edge20" class="edge">
<title>UserService&#45;&gt;UserModule</title>
<path fill="none" stroke="black" d="M1283.65,-256C1253.31,-256 1222.49,-256 1222.49,-256 1222.49,-256 1222.49,-208.01 1222.49,-208.01"/>
<polygon fill="black" stroke="black" points="1225.99,-208.01 1222.49,-198.01 1218.99,-208.01 1225.99,-208.01"/>
</g>
</g>
</svg>
